<svg version="1" xmlns="http://www.w3.org/2000/svg">
    <symbol id="github-icon" viewBox="0 0 32 32" width="32" height="32">
        <g>
            <title>background</title>
            <rect fill="none" id="canvas_background"/>
        </g>
        <g>
            <title>Layer 1</title>
            <path id="svg_1" fill-rule="evenodd" fill="#eee" d="m16.003,0c-8.833,0 -15.995,7.162 -15.995,15.997c0,7.067 4.582,13.063 10.94,15.179c0.8,0.146 1.052,-0.328 1.052,-0.752c0,-0.38 0.008,-1.442 0,-2.777c-4.449,0.967 -5.371,-2.107 -5.371,-2.107c-0.727,-1.848 -1.775,-2.34 -1.775,-2.34c-1.452,-0.992 0.109,-0.973 0.109,-0.973c1.605,0.113 2.451,1.649 2.451,1.649c1.427,2.443 3.743,1.737 4.654,1.329c0.146,-1.034 0.56,-1.739 1.017,-2.139c-3.552,-0.404 -7.286,-1.776 -7.286,-7.906c0,-1.747 0.623,-3.174 1.646,-4.292c-0.165,-0.404 -0.715,-2.031 0.157,-4.234c0,0 1.343,-0.43 4.398,1.641c1.276,-0.355 2.645,-0.532 4.005,-0.538c1.359,0.006 2.727,0.183 4.005,0.538c3.055,-2.07 4.396,-1.641 4.396,-1.641c0.872,2.203 0.323,3.83 0.159,4.234c1.023,1.118 1.644,2.545 1.644,4.292c0,6.146 -3.74,7.498 -7.304,7.893c0.574,0.495 1.095,1.455 1.095,2.947c0,2 0,3.902 0,4.428c0,0.428 0.258,0.901 1.07,0.746c6.352,-2.119 10.93,-8.112 10.93,-15.177c0,-8.835 -7.162,-15.997 -15.997,-15.997z" clip-rule="evenodd"/>
        </g>
    </symbol>

    <symbol id="twitter-icon" viewBox="0 0 32 32" width="32" height="32">
        <g>
            <path d="M31.993,6.077C30.816,6.6,29.552,6.953,28.223,7.11c1.355-0.812,2.396-2.098,2.887-3.63  c-1.269,0.751-2.673,1.299-4.168,1.592C25.744,3.797,24.038,3,22.149,3c-3.625,0-6.562,2.938-6.562,6.563  c0,0.514,0.057,1.016,0.169,1.496C10.301,10.785,5.465,8.172,2.227,4.201c-0.564,0.97-0.888,2.097-0.888,3.3  c0,2.278,1.159,4.286,2.919,5.464c-1.075-0.035-2.087-0.329-2.972-0.821c-0.001,0.027-0.001,0.056-0.001,0.082  c0,3.181,2.262,5.834,5.265,6.437c-0.55,0.149-1.13,0.23-1.729,0.23c-0.424,0-0.834-0.041-1.234-0.117  c0.834,2.606,3.259,4.504,6.13,4.558c-2.245,1.76-5.075,2.811-8.15,2.811c-0.53,0-1.053-0.031-1.566-0.092  C2.905,27.913,6.355,29,10.062,29c12.072,0,18.675-10.001,18.675-18.675c0-0.284-0.008-0.568-0.02-0.85  C30,8.55,31.112,7.395,31.993,6.077z" fill="#eee"/>
        </g>
    </symbol>
    <symbol id="instagram-icon" viewBox="0 0 128 128" width="34" height="34">
        <title />
        <path fill="#eee" d="M83,23a22,22,0,0,1,22,22V83a22,22,0,0,1-22,22H45A22,22,0,0,1,23,83V45A22,22,0,0,1,45,23H83m0-8H45A30.09,30.09,0,0,0,15,45V83a30.09,30.09,0,0,0,30,30H83a30.09,30.09,0,0,0,30-30V45A30.09,30.09,0,0,0,83,15Z" />
        <path fill="#eee" d="M90.14,32a5.73,5.73,0,1,0,5.73,5.73A5.73,5.73,0,0,0,90.14,32Z" />
        <path fill="#eee" d="M64.27,46.47A17.68,17.68,0,1,1,46.6,64.14,17.7,17.7,0,0,1,64.27,46.47m0-8A25.68,25.68,0,1,0,90,64.14,25.68,25.68,0,0,0,64.27,38.47Z" />
    </symbol>

    <symbol id="heart-icon" viewBox="0 0 32 32">
        <path d="M22.229,4.514c-2.547,0-4.85,1.334-5.919,3.414c-1.07-2.079-3.401-3.414-5.948-3.414  c-3.981,0-9.319,3.209-6.888,11.963C6.251,25.034,16.31,30.065,16.31,30.063c0,0.002,10.044-5.029,12.821-13.586  C31.562,7.723,26.209,4.514,22.229,4.514z"
            fill="#eee"/>
    </symbol>

    <symbol id="personalsite-icon" viewBox="0 0 246 51">
        <!-- <svg width="246" height="51" viewBox="0 0 246 51" fill="none" xmlns="http://www.w3.org/2000/svg"> -->
            <path fill-rule="evenodd" clip-rule="evenodd" d="M25.5681 50.7714C39.3752 50.7714 50.5681 39.5785 50.5681 25.7714C50.5681 11.9642 39.3752 0.771362 25.5681 0.771362C11.761 0.771362 0.568115 11.9642 0.568115 25.7714C0.568115 39.5785 11.761 50.7714 25.5681 50.7714ZM16.4744 13.787H18.6931V10.3026H11.9431V42.0682H18.6931V38.5839H16.4744V13.787ZM20.6931 28.8495H29.49V25.2089H20.6931V28.8495ZM38.3337 10.3026H31.5837V13.787H33.8181V38.5839H31.5837V42.0682H38.3337V10.3026Z" fill="#eee"/>
            <path d="M65.0068 30.8163H58.0723L56.7539 34.7714H52.5483L59.6938 15.576H63.3589L70.5439 34.7714H66.3384L65.0068 30.8163ZM59.1401 27.6127H63.939L61.5264 20.4276L59.1401 27.6127ZM71.4932 27.5336C71.4932 25.3099 71.9897 23.5389 72.9829 22.2206C73.9849 20.9022 75.3516 20.243 77.083 20.243C78.4717 20.243 79.6187 20.7616 80.5239 21.7987V14.5214H84.3472V34.7714H80.9062L80.7217 33.2552C79.7725 34.4418 78.5508 35.035 77.0566 35.035C75.3779 35.035 74.0288 34.3759 73.0093 33.0575C71.9985 31.7303 71.4932 29.889 71.4932 27.5336ZM75.3032 27.8104C75.3032 29.1464 75.5361 30.1703 76.002 30.8822C76.4678 31.5941 77.1445 31.9501 78.0322 31.9501C79.21 31.9501 80.0405 31.4535 80.5239 30.4603V24.8309C80.0493 23.8378 79.2275 23.3412 78.0586 23.3412C76.2217 23.3412 75.3032 24.8309 75.3032 27.8104ZM95.3159 24.0795C94.7974 24.0092 94.3403 23.974 93.9448 23.974C92.5034 23.974 91.5586 24.4618 91.1104 25.4374V34.7714H87.3003V20.5067H90.8994L91.0049 22.2074C91.7695 20.8978 92.8286 20.243 94.1821 20.243C94.604 20.243 94.9995 20.3002 95.3687 20.4144L95.3159 24.0795ZM101.183 34.7714H97.3594V20.5067H101.183V34.7714ZM97.1353 16.8153C97.1353 16.244 97.3242 15.7738 97.7021 15.4047C98.0889 15.0355 98.6118 14.851 99.271 14.851C99.9214 14.851 100.44 15.0355 100.827 15.4047C101.213 15.7738 101.407 16.244 101.407 16.8153C101.407 17.3954 101.209 17.87 100.813 18.2391C100.427 18.6083 99.9126 18.7928 99.271 18.7928C98.6294 18.7928 98.1108 18.6083 97.7153 18.2391C97.3286 17.87 97.1353 17.3954 97.1353 16.8153ZM112.6 34.7714C112.424 34.4286 112.296 34.0023 112.217 33.4926C111.294 34.5209 110.095 35.035 108.618 35.035C107.221 35.035 106.061 34.6307 105.138 33.8221C104.224 33.0135 103.767 31.994 103.767 30.7635C103.767 29.2518 104.325 28.0917 105.441 27.2831C106.566 26.4745 108.188 26.0658 110.306 26.057H112.059V25.2396C112.059 24.5804 111.888 24.0531 111.545 23.6576C111.211 23.2621 110.679 23.0643 109.95 23.0643C109.308 23.0643 108.803 23.2181 108.434 23.5258C108.073 23.8334 107.893 24.2552 107.893 24.7914H104.083C104.083 23.9652 104.338 23.2006 104.848 22.4974C105.357 21.7943 106.078 21.245 107.01 20.8495C107.941 20.4452 108.987 20.243 110.147 20.243C111.905 20.243 113.298 20.6869 114.327 21.5746C115.364 22.4535 115.882 23.6927 115.882 25.2924V31.4755C115.891 32.829 116.08 33.8529 116.449 34.5472V34.7714H112.6ZM109.449 32.1215C110.011 32.1215 110.53 31.9984 111.004 31.7523C111.479 31.4974 111.831 31.1591 112.059 30.7372V28.285H110.635C108.728 28.285 107.713 28.9442 107.59 30.2626L107.577 30.4867C107.577 30.9613 107.744 31.3524 108.078 31.66C108.412 31.9677 108.869 32.1215 109.449 32.1215ZM122.316 20.5067L122.435 22.1547C123.454 20.8802 124.821 20.243 126.535 20.243C128.046 20.243 129.171 20.6869 129.91 21.5746C130.648 22.4623 131.026 23.7894 131.043 25.556V34.7714H127.233V25.6483C127.233 24.8397 127.058 24.2552 126.706 23.8949C126.354 23.5258 125.77 23.3412 124.953 23.3412C123.88 23.3412 123.076 23.7982 122.54 24.7123V34.7714H118.73V20.5067H122.316ZM133.351 27.5072C133.351 26.0922 133.623 24.8309 134.168 23.7235C134.713 22.6161 135.495 21.7592 136.515 21.1527C137.543 20.5463 138.734 20.243 140.087 20.243C142.012 20.243 143.581 20.8319 144.794 22.0096C146.016 23.1874 146.697 24.787 146.837 26.8085L146.864 27.7841C146.864 29.9725 146.253 31.7303 145.031 33.0575C143.81 34.3759 142.17 35.035 140.114 35.035C138.057 35.035 136.414 34.3759 135.183 33.0575C133.961 31.7391 133.351 29.9462 133.351 27.6786V27.5072ZM137.161 27.7841C137.161 29.1376 137.416 30.1747 137.925 30.8954C138.435 31.6073 139.165 31.9633 140.114 31.9633C141.037 31.9633 141.757 31.6117 142.276 30.9086C142.794 30.1967 143.054 29.0629 143.054 27.5072C143.054 26.1801 142.794 25.1517 142.276 24.4222C141.757 23.6927 141.028 23.328 140.087 23.328C139.156 23.328 138.435 23.6927 137.925 24.4222C137.416 25.1429 137.161 26.2635 137.161 27.7841ZM167.021 30.8163H160.087L158.769 34.7714H154.563L161.708 15.576H165.374L172.559 34.7714H168.353L167.021 30.8163ZM161.155 27.6127H165.954L163.541 20.4276L161.155 27.6127ZM178.781 30.1176L181.431 20.5067H185.413L180.601 34.7714H176.962L172.15 20.5067H176.131L178.781 30.1176ZM193.481 35.035C191.389 35.035 189.684 34.3934 188.366 33.1102C187.056 31.827 186.401 30.1176 186.401 27.9818V27.6127C186.401 26.1801 186.678 24.9012 187.232 23.7762C187.786 22.6425 188.568 21.7723 189.579 21.1659C190.598 20.5507 191.758 20.243 193.059 20.243C195.01 20.243 196.544 20.8583 197.66 22.0887C198.785 23.3192 199.348 25.0638 199.348 27.3226V28.8783H190.264C190.387 29.8099 190.756 30.557 191.372 31.1195C191.996 31.682 192.782 31.9633 193.731 31.9633C195.199 31.9633 196.346 31.4315 197.172 30.368L199.044 32.4642C198.473 33.2728 197.7 33.9056 196.724 34.3627C195.749 34.8109 194.667 35.035 193.481 35.035ZM193.046 23.328C192.29 23.328 191.675 23.5829 191.2 24.0927C190.734 24.6024 190.436 25.3319 190.304 26.2811H195.604V25.9779C195.586 25.1342 195.357 24.4838 194.918 24.0267C194.479 23.5609 193.854 23.328 193.046 23.328ZM205.544 34.7714H201.721V14.5214H205.544V34.7714ZM212.716 34.7714H208.893V20.5067H212.716V34.7714ZM208.668 16.8153C208.668 16.244 208.857 15.7738 209.235 15.4047C209.622 15.0355 210.145 14.851 210.804 14.851C211.455 14.851 211.973 15.0355 212.36 15.4047C212.747 15.7738 212.94 16.244 212.94 16.8153C212.94 17.3954 212.742 17.87 212.347 18.2391C211.96 18.6083 211.446 18.7928 210.804 18.7928C210.163 18.7928 209.644 18.6083 209.249 18.2391C208.862 17.87 208.668 17.3954 208.668 16.8153ZM219.374 20.5067L219.492 22.1547C220.512 20.8802 221.878 20.243 223.592 20.243C225.104 20.243 226.229 20.6869 226.967 21.5746C227.706 22.4623 228.083 23.7894 228.101 25.556V34.7714H224.291V25.6483C224.291 24.8397 224.115 24.2552 223.764 23.8949C223.412 23.5258 222.828 23.3412 222.01 23.3412C220.938 23.3412 220.134 23.7982 219.598 24.7123V34.7714H215.788V20.5067H219.374ZM230.408 27.5072C230.408 26.0922 230.681 24.8309 231.226 23.7235C231.771 22.6161 232.553 21.7592 233.572 21.1527C234.601 20.5463 235.792 20.243 237.145 20.243C239.07 20.243 240.639 20.8319 241.852 22.0096C243.073 23.1874 243.754 24.787 243.895 26.8085L243.921 27.7841C243.921 29.9725 243.311 31.7303 242.089 33.0575C240.867 34.3759 239.228 35.035 237.171 35.035C235.115 35.035 233.471 34.3759 232.241 33.0575C231.019 31.7391 230.408 29.9462 230.408 27.6786V27.5072ZM234.218 27.7841C234.218 29.1376 234.473 30.1747 234.983 30.8954C235.493 31.6073 236.222 31.9633 237.171 31.9633C238.094 31.9633 238.815 31.6117 239.333 30.9086C239.852 30.1967 240.111 29.0629 240.111 27.5072C240.111 26.1801 239.852 25.1517 239.333 24.4222C238.815 23.6927 238.085 23.328 237.145 23.328C236.213 23.328 235.493 23.6927 234.983 24.4222C234.473 25.1429 234.218 26.2635 234.218 27.7841Z" fill="#eee"/>
        <!-- </svg> -->
    </symbol>
</svg>
