<svg version="1" xmlns="http://www.w3.org/2000/svg">
    <symbol id="github-icon" viewBox="0 0 32 32" width="32" height="32">
        <g>
            <title>background</title>
            <rect fill="none" id="canvas_background"/>
        </g>
        <g>
            <title>Layer 1</title>
            <path id="svg_1" fill-rule="evenodd" fill="#eee" d="m16.003,0c-8.833,0 -15.995,7.162 -15.995,15.997c0,7.067 4.582,13.063 10.94,15.179c0.8,0.146 1.052,-0.328 1.052,-0.752c0,-0.38 0.008,-1.442 0,-2.777c-4.449,0.967 -5.371,-2.107 -5.371,-2.107c-0.727,-1.848 -1.775,-2.34 -1.775,-2.34c-1.452,-0.992 0.109,-0.973 0.109,-0.973c1.605,0.113 2.451,1.649 2.451,1.649c1.427,2.443 3.743,1.737 4.654,1.329c0.146,-1.034 0.56,-1.739 1.017,-2.139c-3.552,-0.404 -7.286,-1.776 -7.286,-7.906c0,-1.747 0.623,-3.174 1.646,-4.292c-0.165,-0.404 -0.715,-2.031 0.157,-4.234c0,0 1.343,-0.43 4.398,1.641c1.276,-0.355 2.645,-0.532 4.005,-0.538c1.359,0.006 2.727,0.183 4.005,0.538c3.055,-2.07 4.396,-1.641 4.396,-1.641c0.872,2.203 0.323,3.83 0.159,4.234c1.023,1.118 1.644,2.545 1.644,4.292c0,6.146 -3.74,7.498 -7.304,7.893c0.574,0.495 1.095,1.455 1.095,2.947c0,2 0,3.902 0,4.428c0,0.428 0.258,0.901 1.07,0.746c6.352,-2.119 10.93,-8.112 10.93,-15.177c0,-8.835 -7.162,-15.997 -15.997,-15.997z" clip-rule="evenodd"/>
        </g>
    </symbol>

    <symbol id="twitter-icon" viewBox="0 0 32 32" width="32" height="32">
        <g>
            <path d="M31.993,6.077C30.816,6.6,29.552,6.953,28.223,7.11c1.355-0.812,2.396-2.098,2.887-3.63  c-1.269,0.751-2.673,1.299-4.168,1.592C25.744,3.797,24.038,3,22.149,3c-3.625,0-6.562,2.938-6.562,6.563  c0,0.514,0.057,1.016,0.169,1.496C10.301,10.785,5.465,8.172,2.227,4.201c-0.564,0.97-0.888,2.097-0.888,3.3  c0,2.278,1.159,4.286,2.919,5.464c-1.075-0.035-2.087-0.329-2.972-0.821c-0.001,0.027-0.001,0.056-0.001,0.082  c0,3.181,2.262,5.834,5.265,6.437c-0.55,0.149-1.13,0.23-1.729,0.23c-0.424,0-0.834-0.041-1.234-0.117  c0.834,2.606,3.259,4.504,6.13,4.558c-2.245,1.76-5.075,2.811-8.15,2.811c-0.53,0-1.053-0.031-1.566-0.092  C2.905,27.913,6.355,29,10.062,29c12.072,0,18.675-10.001,18.675-18.675c0-0.284-0.008-0.568-0.02-0.85  C30,8.55,31.112,7.395,31.993,6.077z" fill="#eee"/>
        </g>
    </symbol>
    <symbol id="instagram-icon" viewBox="0 0 128 128" width="34" height="34">
        <title />
        <path fill="#eee" d="M83,23a22,22,0,0,1,22,22V83a22,22,0,0,1-22,22H45A22,22,0,0,1,23,83V45A22,22,0,0,1,45,23H83m0-8H45A30.09,30.09,0,0,0,15,45V83a30.09,30.09,0,0,0,30,30H83a30.09,30.09,0,0,0,30-30V45A30.09,30.09,0,0,0,83,15Z" />
        <path fill="#eee" d="M90.14,32a5.73,5.73,0,1,0,5.73,5.73A5.73,5.73,0,0,0,90.14,32Z" />
        <path fill="#eee" d="M64.27,46.47A17.68,17.68,0,1,1,46.6,64.14,17.7,17.7,0,0,1,64.27,46.47m0-8A25.68,25.68,0,1,0,90,64.14,25.68,25.68,0,0,0,64.27,38.47Z" />
    </symbol>
</svg>
